<svg width="102" height="125" viewBox="0 0 102 125" fill="none" xmlns="http://www.w3.org/2000/svg">
<mask id="mask0_87_32" style="mask-type:alpha" maskUnits="userSpaceOnUse" x="0" y="0" width="102" height="125">
<rect width="102" height="125" fill="#163155"/>
</mask>
<g mask="url(#mask0_87_32)">
<path d="M51.0562 125.01C36.4429 125.01 24.2562 119.997 14.4962 109.97C4.7362 99.9435 -0.143799 87.4635 -0.143799 72.5301C-0.143799 65.9168 1.34953 59.3035 4.3362 52.6901C7.32287 46.0768 11.0562 39.7301 15.5362 33.6501C20.0162 27.5701 24.8695 21.8635 30.0962 16.5301C35.3229 11.1968 40.1762 6.55681 44.6562 2.61014C45.5095 1.75681 46.4962 1.14348 47.6162 0.770144C48.7362 0.396811 49.8829 0.210144 51.0562 0.210144C52.2295 0.210144 53.3762 0.396811 54.4962 0.770144C55.6162 1.14348 56.6029 1.75681 57.4562 2.61014C61.9362 6.55681 66.7895 11.1968 72.0162 16.5301C77.2429 21.8635 82.0962 27.5701 86.5762 33.6501C91.0562 39.7301 94.7895 46.0768 97.7762 52.6901C100.763 59.3035 102.256 65.9168 102.256 72.5301C102.256 87.4635 97.3762 99.9435 87.6162 109.97C77.8562 119.997 65.6695 125.01 51.0562 125.01ZM51.0562 112.21C62.1495 112.21 71.3229 108.45 78.5762 100.93C85.8295 93.4101 89.4562 83.9435 89.4562 72.5301C89.4562 64.7435 86.2295 55.9435 79.7762 46.1301C73.3229 36.3168 63.7495 25.5968 51.0562 13.9701C38.3629 25.5968 28.7895 36.3168 22.3362 46.1301C15.8829 55.9435 12.6562 64.7435 12.6562 72.5301C12.6562 83.9435 16.2829 93.4101 23.5362 100.93C30.7895 108.45 39.9629 112.21 51.0562 112.21ZM38.2562 99.4101H63.8562C65.6695 99.4101 67.1895 98.7968 68.4162 97.5702C69.6429 96.3435 70.2562 94.8235 70.2562 93.0101C70.2562 91.1968 69.6429 89.6768 68.4162 88.4501C67.1895 87.2235 65.6695 86.6101 63.8562 86.6101H38.2562C36.4429 86.6101 34.9229 87.2235 33.6962 88.4501C32.4695 89.6768 31.8562 91.1968 31.8562 93.0101C31.8562 94.8235 32.4695 96.3435 33.6962 97.5702C34.9229 98.7968 36.4429 99.4101 38.2562 99.4101ZM44.6562 67.4101V73.8101C44.6562 75.6235 45.2695 77.1435 46.4962 78.3701C47.7229 79.5968 49.2429 80.2101 51.0562 80.2101C52.8695 80.2101 54.3895 79.5968 55.6162 78.3701C56.8429 77.1435 57.4562 75.6235 57.4562 73.8101V67.4101H63.8562C65.6695 67.4101 67.1895 66.7968 68.4162 65.5702C69.6429 64.3435 70.2562 62.8235 70.2562 61.0101C70.2562 59.1968 69.6429 57.6768 68.4162 56.4501C67.1895 55.2235 65.6695 54.6101 63.8562 54.6101H57.4562V48.2101C57.4562 46.3968 56.8429 44.8768 55.6162 43.6501C54.3895 42.4235 52.8695 41.8101 51.0562 41.8101C49.2429 41.8101 47.7229 42.4235 46.4962 43.6501C45.2695 44.8768 44.6562 46.3968 44.6562 48.2101V54.6101H38.2562C36.4429 54.6101 34.9229 55.2235 33.6962 56.4501C32.4695 57.6768 31.8562 59.1968 31.8562 61.0101C31.8562 62.8235 32.4695 64.3435 33.6962 65.5702C34.9229 66.7968 36.4429 67.4101 38.2562 67.4101H44.6562Z" fill="#163155"/>
</g>
</svg>
