<svg width="124" height="113" viewBox="0 0 124 113" fill="none" xmlns="http://www.w3.org/2000/svg">
<mask id="mask0_46_305" style="mask-type:alpha" maskUnits="userSpaceOnUse" x="0" y="0" width="124" height="113">
<rect width="124" height="112.829" rx="10" fill="#D9D9D9"/>
</mask>
<g mask="url(#mask0_46_305)">
<path d="M60.7991 101.658C61.1715 101.658 61.5438 101.565 61.9162 101.378C62.2886 101.192 62.5679 101.006 62.7541 100.82L108.556 55.018C109.673 53.9009 110.488 52.6442 111 51.2478C111.512 49.8514 111.768 48.455 111.768 47.0586C111.768 45.5691 111.512 44.1494 111 42.7996C110.488 41.4497 109.673 40.2628 108.556 39.2388L84.8171 15.5C83.7931 14.3829 82.6062 13.5683 81.2563 13.0563C79.9065 12.5443 78.4868 12.2883 76.9973 12.2883C75.6009 12.2883 74.2045 12.5443 72.8081 13.0563C71.4117 13.5683 70.155 14.3829 69.0378 15.5C68.1879 16.35 68.1832 17.7267 69.0275 18.5824L77.8351 27.509C79.2315 28.8123 80.2556 30.3018 80.9072 31.9775C81.5589 33.6532 81.8847 35.4219 81.8847 37.2838C81.8847 41.1937 80.5581 44.4752 77.905 47.1284C75.2518 49.7815 71.9703 51.1081 68.0604 51.1081C66.1985 51.1081 64.4065 50.7823 62.6842 50.1306C60.962 49.479 59.4493 48.5015 58.146 47.1982L54.7437 43.8413C50.831 39.9808 44.5359 40.0019 40.6492 43.8886L23.236 61.3018C22.9568 61.5811 22.7473 61.8836 22.6077 62.2095C22.468 62.5353 22.3982 62.8844 22.3982 63.2568C22.3982 64.0015 22.6775 64.6764 23.236 65.2815C23.7946 65.8867 24.4462 66.1892 25.191 66.1892C25.5634 66.1892 25.9357 66.0961 26.3081 65.9099C26.6805 65.7237 26.9598 65.5375 27.1459 65.3514L42.227 50.2703C43.2511 49.2463 44.5311 48.711 46.0671 48.6644C47.6032 48.6179 48.9297 49.1532 50.0469 50.2703C51.0709 51.2943 51.5829 52.5976 51.5829 54.1802C51.5829 55.7628 51.0709 57.0661 50.0469 58.0901L35.1054 73.1712C34.8261 73.4505 34.6167 73.753 34.477 74.0788C34.3374 74.4047 34.2676 74.7538 34.2676 75.1261C34.2676 75.8709 34.5468 76.5225 35.1054 77.0811C35.664 77.6396 36.3156 77.9189 37.0604 77.9189C37.4327 77.9189 37.8051 77.8258 38.1775 77.6396C38.5499 77.4535 38.8291 77.2673 39.0153 77.0811L54.0964 62.1396C55.1204 61.1156 56.4005 60.5803 57.9365 60.5338C59.4725 60.4872 60.7991 61.0225 61.9162 62.1396C62.9402 63.1637 63.4523 64.467 63.4523 66.0496C63.4523 67.6321 62.9402 68.9354 61.9162 69.9595L47.6882 84.3204C47.2138 84.7993 46.6152 85.2047 46.3649 85.8305C46.3586 85.8463 46.3524 85.8623 46.3464 85.8784C46.2068 86.2508 46.1369 86.6231 46.1369 86.9955C46.1369 87.7402 46.4162 88.3919 46.9748 88.9505C47.5333 89.509 48.185 89.7883 48.9297 89.7883C49.3021 89.7883 49.6512 89.7185 49.977 89.5788C50.3029 89.4392 50.6054 89.2297 50.8847 88.9505L65.9658 74.009C66.9898 72.985 68.2698 72.4497 69.8059 72.4032C71.3419 72.3566 72.6685 72.8919 73.7856 74.009C74.8096 75.033 75.3216 76.3363 75.3216 77.9189C75.3216 79.5015 74.8096 80.8048 73.7856 81.8288L58.7045 96.9099C58.4252 97.1892 58.2158 97.4918 58.0761 97.8176C57.9365 98.1434 57.8667 98.4925 57.8667 98.8649C57.8667 99.6096 58.1692 100.261 58.7743 100.82C59.3794 101.378 60.0544 101.658 60.7991 101.658ZM60.6595 112.829C57.215 112.829 54.1662 111.688 51.5131 109.408C50.8682 108.853 50.288 108.265 49.7724 107.642C46.9307 104.208 43.4627 100.707 39.9908 97.9122C39.6048 97.6014 39.2331 97.2674 38.8757 96.9099C38.4963 96.5305 38.1432 96.1351 37.8165 95.7236C35.0716 92.2668 31.6276 88.8526 28.2253 86.0405C27.8259 85.7103 27.4428 85.3537 27.0761 84.9707C26.7501 84.6302 26.4438 84.279 26.1572 83.917C23.3925 80.4249 19.8451 77.0311 16.3811 74.2312C15.7393 73.7124 15.1384 73.1263 14.5784 72.473C12.3441 69.8664 11.227 66.7943 11.227 63.2568C11.227 61.3949 11.5761 59.6029 12.2743 57.8806C12.9725 56.1584 13.9733 54.6457 15.2766 53.3424L39.7135 28.9054C41.8547 26.7643 44.4845 25.6937 47.6032 25.6937C50.7218 25.6937 53.3517 26.7643 55.4928 28.9054L65.2656 38.6782C65.7312 39.1439 66.1251 39.7287 66.734 39.9794C66.7568 39.9888 66.78 39.9979 66.8036 40.0068C67.176 40.1464 67.5484 40.2162 67.9207 40.2162C68.7586 40.2162 69.4568 39.9602 70.0153 39.4482C70.5739 38.9362 70.8532 38.2613 70.8532 37.4234C70.8532 37.0511 70.7833 36.6787 70.6437 36.3063C70.6349 36.2827 70.6257 36.2595 70.6163 36.2367C70.3656 35.6278 69.7808 35.2339 69.3151 34.7683L50.0469 15.5C49.0228 14.3829 47.8359 13.5683 46.486 13.0563C45.1362 12.5443 43.7165 12.2883 42.227 12.2883C40.8306 12.2883 39.4342 12.5443 38.0378 13.0563C36.6414 13.5683 35.3847 14.3829 34.2676 15.5L14.5784 35.3288C13.7405 36.1667 13.0423 37.1442 12.4838 38.2613C11.9252 39.3784 11.5529 40.4955 11.3667 41.6126C11.1805 42.7297 11.1805 43.8701 11.3667 45.0338C11.693 47.0731 11.481 49.3182 10.0206 50.7785L9.31003 51.4891C6.71682 54.0823 2.3449 53.7402 1.17616 50.2641C1.07612 49.9665 0.981963 49.666 0.893694 49.3626C0.148949 46.8026 -0.13033 44.2192 0.0558559 41.6126C0.242042 39.006 0.893694 36.4692 2.01081 34.0023C3.12793 31.5353 4.66396 29.3243 6.61892 27.3694L26.3081 7.68019C28.5423 5.53905 31.0326 3.90992 33.7788 2.7928C36.5251 1.67569 39.3411 1.11713 42.227 1.11713C45.1129 1.11713 47.929 1.67569 50.6752 2.7928C53.4215 3.90992 55.8652 5.53905 58.0063 7.68019C58.8546 8.52852 60.2301 8.52852 61.0784 7.68019C63.3126 5.53905 65.8029 3.90992 68.5491 2.7928C71.2953 1.67569 74.1114 1.11713 76.9973 1.11713C79.8832 1.11713 82.6993 1.67569 85.4455 2.7928C88.1917 3.90992 90.6354 5.53905 92.7766 7.68019L116.376 31.2793C118.517 33.4204 120.146 35.8874 121.263 38.6802C122.38 41.473 122.939 44.3123 122.939 47.1982C122.939 50.0841 122.38 52.9002 121.263 55.6464C120.146 58.3927 118.517 60.8363 116.376 62.9775L70.5739 108.64C69.2706 109.943 67.7578 110.967 66.0356 111.712C64.3134 112.456 62.5213 112.829 60.6595 112.829Z" fill="#163155"/>
</g>
</svg>
