<svg width="94" height="114" viewBox="0 0 94 114" fill="none" xmlns="http://www.w3.org/2000/svg">
<mask id="mask0_87_74" style="mask-type:alpha" maskUnits="userSpaceOnUse" x="0" y="0" width="94" height="114">
<rect width="94" height="114" fill="#D9D9D9"/>
</mask>
<g mask="url(#mask0_87_74)">
<path d="M5.66667 113.833C4.20278 113.833 2.97569 113.338 1.98542 112.348C0.995139 111.358 0.5 110.131 0.5 108.667V5.33335C0.5 3.86946 0.995139 2.64238 1.98542 1.6521C2.97569 0.661826 4.20278 0.166687 5.66667 0.166687C7.13056 0.166687 8.35764 0.661826 9.34792 1.6521C10.3382 2.64238 10.8333 3.86946 10.8333 5.33335V10.5H83.1667V5.33335C83.1667 3.86946 83.6618 2.64238 84.6521 1.6521C85.6424 0.661826 86.8694 0.166687 88.3333 0.166687C89.7972 0.166687 91.0243 0.661826 92.0146 1.6521C93.0049 2.64238 93.5 3.86946 93.5 5.33335V108.667C93.5 110.131 93.0049 111.358 92.0146 112.348C91.0243 113.338 89.7972 113.833 88.3333 113.833C86.8694 113.833 85.6424 113.338 84.6521 112.348C83.6618 111.358 83.1667 110.131 83.1667 108.667V103.5H10.8333V108.667C10.8333 110.131 10.3382 111.358 9.34792 112.348C8.35764 113.338 7.13056 113.833 5.66667 113.833ZM10.8333 51.8334H21.1667V36.3334C21.1667 34.8695 21.6618 33.6424 22.6521 32.6521C23.6424 31.6618 24.8694 31.1667 26.3333 31.1667H47C48.4639 31.1667 49.691 31.6618 50.6813 32.6521C51.6715 33.6424 52.1667 34.8695 52.1667 36.3334V51.8334H83.1667V20.8334H10.8333V51.8334ZM10.8333 93.1667H41.8333V77.6667C41.8333 76.2028 42.3285 74.9757 43.3188 73.9854C44.309 72.9952 45.5361 72.5 47 72.5H67.6667C69.1306 72.5 70.3576 72.9952 71.3479 73.9854C72.3382 74.9757 72.8333 76.2028 72.8333 77.6667V93.1667H83.1667V62.1667H10.8333V93.1667ZM31.5 51.8334H41.8333V41.5H31.5V51.8334ZM52.1667 93.1667H62.5V82.8334H52.1667V93.1667Z" fill="#163155"/>
</g>
</svg>
